<svg
   xmlns="http://www.w3.org/2000/svg"
   version="1.1"
   width="51.281971"
   height="43.735207"
   id="yelp-logo">
  <g
     transform="translate(-559.48705,-314.09218)"
     id="layer1">
    <g
       transform="matrix(3.9408543,0,0,3.9408543,-960.05773,-2371.0274)"
       id="g6545">
      <g
         transform="matrix(0.43809135,0,0,-0.43809135,222.14854,813.55382)"
         id="g1338">
        <g
           clip-path="url(#clipPath1342)"
           id="g1340">
          <g
             transform="translate(405.717,287.389)"
             id="g1346" />
        </g>
      </g>
      <g
         transform="matrix(1.25,0,0,-1.25,404.28535,674.75029)"
         id="g1362" />
      <g
         transform="matrix(1.25,0,0,-1.25,414.2841,688.49029)"
         id="g1366" />
      <g
         transform="matrix(1.25,0,0,-1.25,421.3466,686.96904)"
         id="g1370" />
      <g
         transform="matrix(1.25,0,0,-1.25,419.20285,676.64904)"
         id="g1374" />
      <g
         transform="matrix(1.25,0,0,-1.25,414.45785,672.74779)"
         id="g1378" />
      <g
         transform="matrix(1.25,0,0,-1.25,404.66285,673.80529)"
         id="g1382" />
      <g
         transform="matrix(1.25,0,0,-1.25,414.66285,687.54279)"
         id="g1386" />
      <g
         transform="matrix(1.25,0,0,-1.25,421.72785,686.02154)"
         id="g1390" />
      <g
         transform="matrix(1.25,0,0,-1.25,419.5791,675.70404)"
         id="g1394" />
      <g
         transform="matrix(1.25,0,0,-1.25,414.8366,671.80279)"
         id="g1398" />
      <g
         transform="matrix(1.25,0,0,-1.25,356.3341,691.56529)"
         id="g1402" />
      <g
         transform="matrix(1.25,0,0,-1.25,375.88285,680.19654)"
         id="g1406" />
      <g
         transform="matrix(1.25,0,0,-1.25,403.6241,686.69654)"
         id="g1418" />
      <path
         d="m 390.55018,686.3617 c -0.15816,0.25322 -0.2243,1.04879 -0.16954,1.57756 0.0189,0.17437 0.05,0.31981 0.0968,0.40612 0.0631,0.12047 0.1691,0.19232 0.29001,0.19626 0.0767,0.004 0.1253,-0.009 1.58326,-0.47883 0,0 0.64794,-0.2059 0.65144,-0.20721 0.16035,-0.0417 0.26987,-0.1897 0.28038,-0.37939 0.0105,-0.19496 -0.0907,-0.36625 -0.25541,-0.42846 0,0 -0.45736,-0.18663 -0.45736,-0.18663 -1.56749,-0.64662 -1.63715,-0.67115 -1.71688,-0.67203 -0.12048,-0.006 -0.22781,0.0561 -0.30272,0.17261"
         id="path1364"
         class= "turns-green starts-normal slightly-darker" />
      <path
         d="m 394.05447,691.1772 c 0.0259,-0.0736 0.0284,-0.12398 0.0324,-1.65555 0,0 0.004,-0.67684 0.006,-0.6843 0.01,-0.16472 -0.0973,-0.3163 -0.27337,-0.3842 -0.18093,-0.0701 -0.37588,-0.0272 -0.48584,0.10952 0,0 -0.31893,0.37851 -0.32024,0.37895 -1.09742,1.29018 -1.14342,1.34888 -1.16971,1.42599 -0.0167,0.0447 -0.0233,0.092 -0.018,0.14019 0.007,0.0679 0.0372,0.13668 0.0894,0.19801 0.2541,0.3036 1.47505,0.75265 1.86408,0.68606 0.13537,-0.0246 0.23438,-0.10164 0.27599,-0.21467"
         id="path1368"
         class= "turns-green starts-normal slightly-darker" />
      <path
         d="m 396.52969,690.64405 c 0.36887,-0.14677 1.17233,-1.1684 1.22841,-1.56092 0.0192,-0.13713 -0.0232,-0.25454 -0.11786,-0.33032 -0.0609,-0.0464 -0.10952,-0.0644 -1.56529,-0.5428 0,0 -0.64006,-0.21116 -0.64707,-0.21467 -0.15552,-0.0604 -0.33163,-0.005 -0.45035,0.14194 -0.12355,0.15027 -0.14282,0.34785 -0.0433,0.49811 l 0.25716,0.41838 c 0.86523,1.4054 0.9305,1.50441 0.99271,1.55348 0.0964,0.0749 0.21949,0.0885 0.34566,0.0368"
         id="path1372"
         class= "turns-green starts-normal slightly-darker" />
      <path
         d="m 395.77836,687.02716 c 1.65598,-0.40042 1.71951,-0.42144 1.78522,-0.46437 0.10032,-0.0683 0.14983,-0.1805 0.14151,-0.31937 0,-0.005 3.4e-4,-0.009 0,-0.0136 -0.0429,-0.40611 -0.75483,-1.4641 -1.10574,-1.63583 -0.12486,-0.0591 -0.24928,-0.0552 -0.35179,0.0131 -0.064,0.0429 -0.11171,0.10427 -0.99754,1.31778 0,0 -0.40085,0.54587 -0.40567,0.55068 -0.10558,0.12793 -0.1069,0.31236 -0.004,0.47051 0.10646,0.16341 0.28783,0.24314 0.45342,0.19714 0,0 -0.007,0.0114 -0.009,0.014 0.0811,-0.0311 0.22825,-0.067 0.49373,-0.13011"
         id="path1376"
         class= "turns-green starts-normal slightly-darker" />
      <path
         d="m 394.11536,685.65988 c -0.0289,-0.65627 -0.22561,-3.57789 -0.24883,-3.71283 -0.0337,-0.12354 -0.12968,-0.21072 -0.26768,-0.24533 -0.42188,-0.10514 -2.038,0.34829 -2.33722,0.65714 -0.0955,0.0999 -0.13142,0.22387 -0.10294,0.33339 0.0469,0.0964 2.04851,3.24582 2.04851,3.24582 0.29615,0.48014 0.53754,0.40523 0.6164,0.3807 0.0789,-0.0246 0.31893,-0.0994 0.29176,-0.65889"
         id="path1380"
         class= "turns-green starts-normal slightly-darker" />
      <path
         d="m 390.68248,686.0305 c -0.15771,0.25278 -0.2243,1.0488 -0.16954,1.57713 0.0193,0.17437 0.0508,0.31981 0.0968,0.40655 0.0631,0.12004 0.1691,0.19145 0.29002,0.19583 0.0775,0.004 0.12573,-0.009 1.5837,-0.47796 0,0 0.64793,-0.20678 0.65056,-0.2081 0.16166,-0.0412 0.2703,-0.18969 0.28081,-0.37938 0.0106,-0.19452 -0.0898,-0.36625 -0.2554,-0.42845 0,0 -0.45693,-0.18619 -0.45781,-0.18619 -1.56661,-0.64619 -1.63714,-0.6716 -1.716,-0.67247 -0.12092,-0.005 -0.22825,0.0561 -0.30316,0.17304"
         id="path1384"
         class="turns-green starts-normal"
          />
      <path
         d="m 394.18721,690.84512 c 0.0254,-0.0736 0.0284,-0.12397 0.0329,-1.65554 0,0 0.003,-0.67685 0.004,-0.68342 0.0105,-0.16604 -0.0968,-0.31718 -0.2725,-0.38464 -0.18093,-0.0697 -0.37588,-0.0267 -0.4854,0.10952 0,0 -0.3198,0.37939 -0.32068,0.37939 -1.09742,1.2893 -1.14342,1.34887 -1.17014,1.42511 -0.0162,0.0447 -0.0228,0.0929 -0.0175,0.14061 0.006,0.0683 0.0377,0.13582 0.0889,0.19891 0.25452,0.30228 1.47505,0.75132 1.86495,0.68473 0.13537,-0.0246 0.23394,-0.10076 0.27556,-0.21467"
         id="path1388"
         class="turns-green starts-normal"
          />
      <path
         d="m 396.6633,690.31197 c 0.368,-0.14676 1.17059,-1.16795 1.2271,-1.56092 0.0197,-0.13669 -0.0232,-0.25453 -0.11741,-0.32988 -0.0618,-0.0464 -0.10865,-0.0644 -1.56574,-0.5428 0,0 -0.63917,-0.21116 -0.6475,-0.2151 -0.15465,-0.06 -0.33119,-0.004 -0.44992,0.14194 -0.12354,0.15026 -0.14194,0.34872 -0.0433,0.49855 l 0.25717,0.41881 c 0.86478,1.40452 0.93094,1.50397 0.99315,1.5526 0.0964,0.0758 0.21904,0.0881 0.34653,0.0368"
         id="path1392"
         class="turns-green starts-normal"
          />
      <path
         d="m 395.91022,686.69597 c 1.65599,-0.40129 1.71995,-0.42233 1.78522,-0.46526 0.10033,-0.0675 0.15071,-0.18049 0.14195,-0.31805 0,-0.004 8.1e-4,-0.009 0,-0.014 -0.0425,-0.40654 -0.75483,-1.46409 -1.10574,-1.63583 -0.12442,-0.0596 -0.24884,-0.0557 -0.35223,0.0136 -0.064,0.0417 -0.11084,0.10471 -0.99753,1.31734 0,0 -0.40042,0.54543 -0.40524,0.55069 -0.10558,0.12836 -0.10733,0.31236 -0.004,0.47007 0.10689,0.16341 0.28738,0.24314 0.45298,0.19714 0,0 -0.006,0.0118 -0.008,0.014 0.0815,-0.0307 0.22737,-0.0665 0.49285,-0.12967"
         id="path1396"
         class="turns-green starts-normal"
          />
      <path
         d="m 394.24811,685.32868 c -0.0285,-0.65626 -0.22606,-3.57833 -0.24928,-3.7137 -0.0333,-0.12266 -0.12923,-0.21028 -0.26679,-0.24489 -0.42277,-0.1047 -2.03844,0.34784 -2.33766,0.6567 -0.0964,0.10032 -0.13187,0.22386 -0.10295,0.33338 0.0473,0.0968 2.04895,3.24626 2.04895,3.24626 0.29572,0.47971 0.5371,0.40524 0.61639,0.38026 0.0784,-0.0241 0.3185,-0.0986 0.29134,-0.65801"
         id="path1400"
         class="turns-green starts-normal"
           />
      <path
         d="m 386.37308,692.25491 c 0.20853,0.19319 0.60369,0.24796 1.08383,0.15026 0.44993,-0.0889 0.72899,-0.29002 0.99754,-1.14386 l 1.33749,-4.20217 c 0.0692,-0.22299 0.064,-0.41662 -0.0153,-0.56032 -0.0644,-0.11565 -0.17173,-0.19407 -0.32331,-0.23438 -0.23832,-0.0652 -0.53578,-0.0587 -0.72329,0.58179 l -0.70182,2.38365 c 0,0 -1.42949,-2.70039 -1.43036,-2.70083 -0.0903,-0.1805 -0.35486,-0.30973 -0.62429,-0.20284 -0.35134,0.13362 -0.46832,0.44949 -0.32812,0.85648 0,0 1.73878,3.53846 1.74272,3.5481 0,0 0.0473,0.12617 0.0473,0.14676 0,0 0.0158,0.0959 0.0158,0.0994 -0.003,0.13625 -0.0491,0.25103 -0.13055,0.3277 -0.0802,0.0753 -0.19145,0.11478 -0.32156,0.10952 0,0 -0.27118,-0.006 -0.29177,-0.006 -0.27863,0.0342 -0.45387,0.19408 -0.4819,0.44116 -0.0197,0.15903 0.0316,0.29878 0.14763,0.40567"
         id="path1404"
         class="turns-green starts-normal"
          />
    </g>
  </g>
</svg>
