<?xml version="1.0" encoding="UTF-8" standalone="no"?>
<!-- Created with Inkscape (http://www.inkscape.org/) -->

<svg
   xmlns:dc="http://purl.org/dc/elements/1.1/"
   xmlns:cc="http://creativecommons.org/ns#"
   xmlns:rdf="http://www.w3.org/1999/02/22-rdf-syntax-ns#"
   xmlns:svg="http://www.w3.org/2000/svg"
   xmlns="http://www.w3.org/2000/svg"
   version="1.1"
   width="85"
   height="16"
   id="svg5117">
  <defs
     id="defs5119" />
  <metadata
     id="metadata5122">
    <rdf:RDF>
      <cc:Work
         rdf:about="">
        <dc:format>image/svg+xml</dc:format>
        <dc:type
           rdf:resource="http://purl.org/dc/dcmitype/StillImage" />
        <dc:title></dc:title>
      </cc:Work>
    </rdf:RDF>
  </metadata>
  <g
     transform="translate(0,-1036.3622)"
     id="layer1">
    <g
       id="layer1-9" />
    <rect
       width="16"
       height="16"
       rx="2"
       ry="2"
       x="0"
       y="0.090097398"
       transform="translate(0,1036.3622)"
       id="rect5347"
       style="fill:#777777;fill-opacity:0.94117647" />
    <path
       d="M 2.3811143,3.2568056 0.05094238,2.0288038 -2.271313,3.2717111 -1.8234766,0.67611246 -3.723168,-1.1484042 l 2.60695,-0.3761663 1.14818154,-2.3705206 1.16334736,2.363115 2.6093066,0.3594544 -1.8879619,1.83665176 z"
       transform="matrix(1.8750245,0,0,1.9333982,8.0543068,1044.8308)"
       id="path5349"
       style="fill:#00ec1c;fill-opacity:0.94117647" />
    <g
       transform="translate(17,-0.09014829)"
       id="g5919" />
    <rect
       width="16"
       height="16"
       rx="2"
       ry="2"
       x="17"
       y="1036.3622"
       id="rect5921"
       style="fill:#777777;fill-opacity:0.94117647" />
    <path
       d="M 2.3811143,3.2568056 0.05094238,2.0288038 -2.271313,3.2717111 -1.8234766,0.67611246 -3.723168,-1.1484042 l 2.60695,-0.3761663 1.14818154,-2.3705206 1.16334736,2.363115 2.6093066,0.3594544 -1.8879619,1.83665176 z"
       transform="matrix(1.8750245,0,0,1.9333982,25.054307,1044.7407)"
       id="path5923"
       style="fill:#00ec1c;fill-opacity:0.94117647" />
    <g
       transform="translate(34,-0.09013091)"
       id="g5925" />
    <rect
       width="16"
       height="16"
       rx="2"
       ry="2"
       x="34"
       y="1036.3622"
       id="rect5927"
       style="fill:#777777;fill-opacity:0.94117647" />
    <path
       d="M 2.3811143,3.2568056 0.05094238,2.0288038 -2.271313,3.2717111 -1.8234766,0.67611246 -3.723168,-1.1484042 l 2.60695,-0.3761663 1.14818154,-2.3705206 1.16334736,2.363115 2.6093066,0.3594544 -1.8879619,1.83665176 z"
       transform="matrix(1.8750245,0,0,1.9333982,42.054307,1044.7407)"
       id="path5929"
       style="fill:#00ec1c;fill-opacity:0.94117647" />
    <g
       transform="translate(51000,-0.09013091)"
       id="g5931" />
    <rect
       width="16"
       height="16"
       rx="2"
       ry="2"
       x="51000"
       y="1036.3622"
       id="rect5933"
       style="fill:#777777;fill-opacity:0.94117647" />
    <path
       d="M 2.3811143,3.2568056 0.05094238,2.0288038 -2.271313,3.2717111 -1.8234766,0.67611246 -3.723168,-1.1484042 l 2.60695,-0.3761663 1.14818154,-2.3705206 1.16334736,2.363115 2.6093066,0.3594544 -1.8879619,1.83665176 z"
       transform="matrix(1.8750245,0,0,1.9333982,51008.054,1044.7407)"
       id="path5935"
       style="fill:#00ec1c;fill-opacity:0.94117647" />
    <rect
       width="16"
       height="16"
       rx="2"
       ry="2"
       x="51"
       y="1036.3622"
       id="rect5937"
       style="fill:#777777;fill-opacity:0.94117647" />
    <rect
       width="16"
       height="16"
       rx="2"
       ry="2"
       x="68"
       y="1036.3622"
       id="rect5941"
       style="fill:#777777;fill-opacity:0.94117647" />
    <path
       d="m 58.938,1037.7684 -2.031396,4.3125 -4.906604,0.7188 3.562757,3.5312 -0.843811,5.0313 4.219054,-2.3125 0,-11.2813 z"
       id="path5943"
       style="fill:#00ec1c;fill-opacity:0.94117647" />
  </g>
</svg>
