<?xml version="1.0" encoding="UTF-8" standalone="no"?>
<!-- Created with Inkscape (http://www.inkscape.org/) -->

<svg
   xmlns:dc="http://purl.org/dc/elements/1.1/"
   xmlns:cc="http://creativecommons.org/ns#"
   xmlns:rdf="http://www.w3.org/1999/02/22-rdf-syntax-ns#"
   xmlns:svg="http://www.w3.org/2000/svg"
   xmlns="http://www.w3.org/2000/svg"
   xmlns:sodipodi="http://sodipodi.sourceforge.net/DTD/sodipodi-0.dtd"
   xmlns:inkscape="http://www.inkscape.org/namespaces/inkscape"
   width="85"
   height="16"
   id="svg5117"
   version="1.1"
   inkscape:version="0.48.2 r9819"
   sodipodi:docname="star.svg">
  <defs
     id="defs5119" />
  <sodipodi:namedview
     id="base"
     pagecolor="#ffffff"
     bordercolor="#666666"
     borderopacity="1.0"
     inkscape:pageopacity="0.0"
     inkscape:pageshadow="2"
     inkscape:zoom="35.875"
     inkscape:cx="70.439024"
     inkscape:cy="7.9099026"
     inkscape:document-units="px"
     inkscape:current-layer="layer1"
     showgrid="false"
     inkscape:window-width="1208"
     inkscape:window-height="841"
     inkscape:window-x="120"
     inkscape:window-y="0"
     inkscape:window-maximized="0" />
  <metadata
     id="metadata5122">
    <rdf:RDF>
      <cc:Work
         rdf:about="">
        <dc:format>image/svg+xml</dc:format>
        <dc:type
           rdf:resource="http://purl.org/dc/dcmitype/StillImage" />
        <dc:title></dc:title>
      </cc:Work>
    </rdf:RDF>
  </metadata>
  <g
     inkscape:label="Layer 1"
     inkscape:groupmode="layer"
     id="layer1"
     transform="translate(0,-1036.3622)">
    <g
       id="layer1-9"
       inkscape:label="Layer 1" />
    <rect
       style="fill:#777777;fill-opacity:0.94117647"
       id="rect5347"
       width="16"
       height="16"
       x="0"
       y="0.090097398"
       rx="2"
       ry="2"
       transform="translate(0,1036.3622)" />
    <path
       sodipodi:type="star"
       style="fill:#00ec1c;fill-opacity:0.94117647"
       id="path5349"
       sodipodi:sides="5"
       sodipodi:cx="0.044642858"
       sodipodi:cy="0.062499952"
       sodipodi:r1="3.9576114"
       sodipodi:r2="1.966314"
       sodipodi:arg1="0.93927401"
       sodipodi:arg2="1.5675926"
       inkscape:flatsided="false"
       inkscape:rounded="0"
       inkscape:randomized="0"
       d="M 2.3811143,3.2568056 0.05094238,2.0288038 -2.271313,3.2717111 -1.8234766,0.67611246 -3.723168,-1.1484042 l 2.60695,-0.3761663 1.14818154,-2.3705206 1.16334736,2.363115 2.6093066,0.3594544 -1.8879619,1.83665176 z"
       transform="matrix(1.8750245,0,0,1.9333982,8.0543068,1044.8308)"
       inkscape:transform-center-x="0.13801324"
       inkscape:transform-center-y="-0.58934363" />
    <g
       inkscape:label="Layer 1"
       id="g5919"
       transform="translate(17,-0.09014829)" />
    <rect
       ry="2"
       rx="2"
       y="1036.3622"
       x="17"
       height="16"
       width="16"
       id="rect5921"
       style="fill:#777777;fill-opacity:0.94117647" />
    <path
       inkscape:transform-center-y="-0.58934363"
       inkscape:transform-center-x="0.13801324"
       transform="matrix(1.8750245,0,0,1.9333982,25.054307,1044.7407)"
       d="M 2.3811143,3.2568056 0.05094238,2.0288038 -2.271313,3.2717111 -1.8234766,0.67611246 -3.723168,-1.1484042 l 2.60695,-0.3761663 1.14818154,-2.3705206 1.16334736,2.363115 2.6093066,0.3594544 -1.8879619,1.83665176 z"
       inkscape:randomized="0"
       inkscape:rounded="0"
       inkscape:flatsided="false"
       sodipodi:arg2="1.5675926"
       sodipodi:arg1="0.93927401"
       sodipodi:r2="1.966314"
       sodipodi:r1="3.9576113"
       sodipodi:cy="0.062499952"
       sodipodi:cx="0.044642858"
       sodipodi:sides="5"
       id="path5923"
       style="fill:#00ec1c;fill-opacity:0.94117647"
       sodipodi:type="star" />
    <g
       transform="translate(34,-0.09013091)"
       id="g5925"
       inkscape:label="Layer 1" />
    <rect
       style="fill:#777777;fill-opacity:0.94117647"
       id="rect5927"
       width="16"
       height="16"
       x="34"
       y="1036.3622"
       rx="2"
       ry="2" />
    <path
       sodipodi:type="star"
       style="fill:#00ec1c;fill-opacity:0.94117647"
       id="path5929"
       sodipodi:sides="5"
       sodipodi:cx="0.044642858"
       sodipodi:cy="0.062499952"
       sodipodi:r1="3.9576113"
       sodipodi:r2="1.966314"
       sodipodi:arg1="0.93927401"
       sodipodi:arg2="1.5675926"
       inkscape:flatsided="false"
       inkscape:rounded="0"
       inkscape:randomized="0"
       d="M 2.3811143,3.2568056 0.05094238,2.0288038 -2.271313,3.2717111 -1.8234766,0.67611246 -3.723168,-1.1484042 l 2.60695,-0.3761663 1.14818154,-2.3705206 1.16334736,2.363115 2.6093066,0.3594544 -1.8879619,1.83665176 z"
       transform="matrix(1.8750245,0,0,1.9333982,42.054307,1044.7407)"
       inkscape:transform-center-x="0.13801324"
       inkscape:transform-center-y="-0.58934363" />
    <g
       inkscape:label="Layer 1"
       id="g5931"
       transform="translate(51000,-0.09013091)" />
    <rect
       ry="2"
       rx="2"
       y="1036.3622"
       x="51000"
       height="16"
       width="16"
       id="rect5933"
       style="fill:#777777;fill-opacity:0.94117647" />
    <path
       inkscape:transform-center-y="-0.58934363"
       inkscape:transform-center-x="0.13801324"
       transform="matrix(1.8750245,0,0,1.9333982,51008.054,1044.7407)"
       d="M 2.3811143,3.2568056 0.05094238,2.0288038 -2.271313,3.2717111 -1.8234766,0.67611246 -3.723168,-1.1484042 l 2.60695,-0.3761663 1.14818154,-2.3705206 1.16334736,2.363115 2.6093066,0.3594544 -1.8879619,1.83665176 z"
       inkscape:randomized="0"
       inkscape:rounded="0"
       inkscape:flatsided="false"
       sodipodi:arg2="1.5675926"
       sodipodi:arg1="0.93927401"
       sodipodi:r2="1.966314"
       sodipodi:r1="3.9576113"
       sodipodi:cy="0.062499952"
       sodipodi:cx="0.044642858"
       sodipodi:sides="5"
       id="path5935"
       style="fill:#00ec1c;fill-opacity:0.94117647"
       sodipodi:type="star" />
    <rect
       ry="2"
       rx="2"
       y="1036.3622"
       x="51"
       height="16"
       width="16"
       id="rect5937"
       style="fill:#777777;fill-opacity:0.94117647" />
    <path
       inkscape:transform-center-y="-0.58934363"
       inkscape:transform-center-x="0.13801324"
       transform="matrix(1.8750245,0,0,1.9333982,59.054307,1044.7407)"
       d="M 2.3811143,3.2568056 0.05094238,2.0288038 -2.271313,3.2717111 -1.8234766,0.67611246 -3.723168,-1.1484042 l 2.60695,-0.3761663 1.14818154,-2.3705206 1.16334736,2.363115 2.6093066,0.3594544 -1.8879619,1.83665176 z"
       inkscape:randomized="0"
       inkscape:rounded="0"
       inkscape:flatsided="false"
       sodipodi:arg2="1.5675926"
       sodipodi:arg1="0.93927401"
       sodipodi:r2="1.966314"
       sodipodi:r1="3.9576113"
       sodipodi:cy="0.062499952"
       sodipodi:cx="0.044642858"
       sodipodi:sides="5"
       id="path5939"
       style="fill:#00ec1c;fill-opacity:0.94117647"
       sodipodi:type="star" />
    <rect
       style="fill:#777777;fill-opacity:0.94117647"
       id="rect5941"
       width="16"
       height="16"
       x="68"
       y="1036.3622"
       rx="2"
       ry="2" />
    <path
       sodipodi:type="star"
       style="fill:#00ec1c;fill-opacity:0.94117647"
       id="path5943"
       sodipodi:sides="5"
       sodipodi:cx="0.044642858"
       sodipodi:cy="0.062499952"
       sodipodi:r1="3.9576113"
       sodipodi:r2="1.966314"
       sodipodi:arg1="0.93927401"
       sodipodi:arg2="1.5675926"
       inkscape:flatsided="false"
       inkscape:rounded="0"
       inkscape:randomized="0"
       d="M 2.3811143,3.2568056 0.05094238,2.0288038 -2.271313,3.2717111 -1.8234766,0.67611246 -3.723168,-1.1484042 l 2.60695,-0.3761663 1.14818154,-2.3705206 1.16334736,2.363115 2.6093066,0.3594544 -1.8879619,1.83665176 z"
       transform="matrix(1.8750245,0,0,1.9333982,76.054307,1044.7407)"
       inkscape:transform-center-x="0.13801324"
       inkscape:transform-center-y="-0.58934363" />
  </g>
</svg>
